HIERARCHY
ROOT Hips
{
	OFFSET 0.000000 0.000000 0.000000
	CHANNELS 6 Xposition Yposition Zposition Zrotation Yrotation Xrotation 
	JOINT LowerBack
	{
		OFFSET 0.000000 0.000000 0.000000
		CHANNELS 3 Zrotation Yrotation Xrotation
		JOINT Spine
		{
			OFFSET 0.028270 2.035590 -0.193380
			CHANNELS 3 Zrotation Yrotation Xrotation
			JOINT Spine1
			{
				OFFSET 0.056720 2.048850 -0.042750
				CHANNELS 3 Zrotation Yrotation Xrotation
				JOINT Neck
				{
					OFFSET 0.000000 0.000000 0.000000
					CHANNELS 3 Zrotation Yrotation Xrotation
					JOINT Neck1
					{
						OFFSET -0.054170 1.746240 0.172020
						CHANNELS 3 Zrotation Yrotation Xrotation
						JOINT Head
						{
							OFFSET 0.104070 1.761360 -0.123970
							CHANNELS 3 Zrotation Yrotation Xrotation
							End Site
							{
								OFFSET 0.000000 0.000000 0.000000
							}
						}
					}
				}
				JOINT LeftShoulder
				{
					OFFSET 0.000000 0.000000 0.000000
					CHANNELS 3 Zrotation Yrotation Xrotation
					JOINT LeftArm
					{
						OFFSET 3.362410 1.200890 -0.311210
						CHANNELS 3 Zrotation Yrotation Xrotation
						JOINT LeftForeArm
						{
							OFFSET 4.983000 -0.000000 -0.000000
							CHANNELS 3 Zrotation Yrotation Xrotation
							JOINT LeftHand
							{
								OFFSET 3.483560 -0.000000 -0.000000
								CHANNELS 3 Zrotation Yrotation Xrotation
								JOINT LeftFingerBase
								{
									OFFSET 0.000000 0.000000 0.000000
									CHANNELS 3 Zrotation Yrotation Xrotation
									JOINT LeftHandIndex1
									{
										OFFSET 0.715260 -0.000000 -0.000000
										CHANNELS 3 Zrotation Yrotation Xrotation
										End Site
										{
											OFFSET 0.000000 0.000000 0.000000
										}
									}
								}
								JOINT LThumb
								{
									OFFSET 0.000000 0.000000 0.000000
									CHANNELS 3 Zrotation Yrotation Xrotation
									End Site
									{
										OFFSET 0.000000 0.000000 0.000000
									}
								}
							}
						}
					}
				}
				JOINT RightShoulder
				{
					OFFSET 0.000000 0.000000 0.000000
					CHANNELS 3 Zrotation Yrotation Xrotation
					JOINT RightArm
					{
						OFFSET -3.136600 1.374050 -0.404650
						CHANNELS 3 Zrotation Yrotation Xrotation
						JOINT RightForeArm
						{
							OFFSET -5.241900 -0.000000 -0.000000
							CHANNELS 3 Zrotation Yrotation Xrotation
							JOINT RightHand
							{
								OFFSET -3.444170 -0.000000 -0.000000
								CHANNELS 3 Zrotation Yrotation Xrotation
								JOINT RightFingerBase
								{
									OFFSET 0.000000 0.000000 0.000000
									CHANNELS 3 Zrotation Yrotation Xrotation
									JOINT RightHandIndex1
									{
										OFFSET -0.622530 -0.000000 -0.000000
										CHANNELS 3 Zrotation Yrotation Xrotation
										End Site
										{
											OFFSET 0.000000 0.000000 0.000000
										}
									}
								}
								JOINT RThumb
								{
									OFFSET 0.000000 0.000000 0.000000
									CHANNELS 3 Zrotation Yrotation Xrotation
									End Site
									{
										OFFSET 0.000000 0.000000 0.000000
									}
								}
							}
						}
					}
				}
			}
		}
	}
}
}
MOTION
Frames: 7
Frame Time: 0.008333
-8.966890 17.024833 -1.390520 166.651639 89.478274 175.545502 -2.765030 2.528418 -5.524780 -1.898022 2.476125 -3.755911 -7.729971 2.458629 1.845365 12.320287 -7.833126 -8.939306 -3.551650 -0.269813 -0.353452 0.000000 0.000000 0.000000 -1.371808 25.414588 0.493476 -64.605947 17.267956 -11.582337 -2.477259 -43.781892 0.019465 13.375367 -1.755690 -0.200945 -0.163952 -0.053612 -0.000000 0.000000 0.000000 0.000000 0.000000 0.000000 0.000000 19.084806 0.467565 -0.695973 71.965452 13.810819 3.021453 2.546512 42.954131 0.008869 -0.504771 7.064907 -0.035010 0.066227 -0.232839 0.000000 0.000000 0.000000 0.000000 0.000000 0.000000 0.000000 
-8.798438 17.016167 -1.377160 147.742207 89.337798 156.484107 -2.956426 2.404151 -5.421496 -1.961522 2.384526 -3.740387 -7.744784 2.377037 1.828354 12.351049 -7.816058 -8.946694 -3.583034 -0.272156 -0.357387 0.000000 0.000000 0.000000 -1.412345 25.241370 0.477481 -64.361050 16.927292 -11.571269 -2.467925 -43.815380 0.019460 13.600964 -1.757327 -0.204643 -0.162756 -0.052844 -0.000000 0.000000 0.000000 0.000000 0.000000 0.000000 0.000000 19.280842 0.424720 -0.673351 72.364444 13.510750 2.639421 2.581033 41.990872 0.008694 -0.629652 7.137077 -0.043528 0.068142 -0.228981 0.000000 0.000000 0.000000 0.000000 0.000000 0.000000 0.000000 
-8.634281 17.008439 -1.365475 135.176998 89.056793 143.794361 -3.200336 2.259177 -5.311592 -2.018818 2.272183 -3.721856 -7.743019 2.269700 1.806408 12.351393 -7.794123 -8.949322 -3.610958 -0.274209 -0.360590 0.000000 0.000000 0.000000 -1.474060 25.016450 0.474716 -64.168964 16.545288 -11.539649 -2.461842 -43.796735 0.019371 13.832414 -1.748493 -0.207145 -0.161403 -0.051908 -0.000000 0.000000 0.000000 0.000000 0.000000 0.000000 0.000000 19.425949 0.356729 -0.655409 72.760711 13.211819 2.213362 2.609125 41.001139 0.008354 -0.817595 7.231393 -0.056449 0.070383 -0.225082 0.000000 0.000000 0.000000 0.000000 0.000000 0.000000 0.000000 
-8.474372 17.001997 -1.355707 126.703526 88.745664 135.214619 -3.452230 2.120895 -5.194335 -2.066142 2.163265 -3.701555 -7.729286 2.162021 1.783543 12.324933 -7.766514 -8.950417 -3.634762 -0.275840 -0.363449 0.000000 0.000000 0.000000 -1.556836 24.773102 0.475895 -64.031561 16.106439 -11.477666 -2.458675 -43.718349 0.019217 14.055762 -1.734159 -0.208750 -0.159850 -0.050874 -0.000000 0.000000 0.000000 0.000000 0.000000 0.000000 0.000000 19.519661 0.281621 -0.638108 73.148178 12.914721 1.750653 2.632517 39.993663 0.007889 -1.062203 7.342800 -0.073673 0.072952 -0.221199 0.000000 0.000000 0.000000 0.000000 0.000000 0.000000 0.000000 
-8.318525 16.997175 -1.348282 120.459947 88.448175 128.878582 -3.671423 1.993450 -5.071049 -2.100429 2.060460 -3.679323 -7.706290 2.058856 1.761649 12.271067 -7.733856 -8.951120 -3.654538 -0.277079 -0.366081 0.000000 0.000000 0.000000 -1.668212 24.526703 0.477761 -63.945390 15.609904 -11.378602 -2.458022 -43.585481 0.019001 14.258848 -1.715766 -0.209657 -0.158058 -0.049785 -0.000000 0.000000 0.000000 0.000000 0.000000 0.000000 0.000000 19.561674 0.205006 -0.620716 73.520162 12.618382 1.264349 2.652420 38.976251 0.007340 -1.354113 7.466437 -0.094699 0.075814 -0.217293 0.000000 0.000000 0.000000 0.000000 0.000000 0.000000 0.000000 
-8.166462 16.994231 -1.343645 115.234558 88.187476 123.573062 -3.833302 1.877384 -4.945501 -2.119114 1.963219 -3.655839 -7.675760 1.960671 1.740505 12.188948 -7.696313 -8.951006 -3.670682 -0.278006 -0.368230 0.000000 0.000000 0.000000 -1.819874 24.282843 0.478545 -63.904110 15.069306 -11.240638 -2.459143 -43.415743 0.018739 14.432282 -1.692894 -0.209368 -0.156016 -0.048722 -0.000000 0.000000 0.000000 0.000000 0.000000 0.000000 0.000000 19.552751 0.129790 -0.602742 73.869562 12.320397 0.769280 2.670130 37.956127 0.006752 -1.681089 7.596952 -0.118827 0.078906 -0.213316 0.000000 0.000000 0.000000 0.000000 0.000000 0.000000 0.000000 
-8.017772 16.993340 -1.341853 110.125053 87.969960 118.394840 -3.932755 1.772713 -4.821702 -2.122470 1.871555 -3.631434 -7.639228 1.867962 1.722286 12.081962 -7.654975 -8.951746 -3.683588 -0.278654 -0.370360 0.000000 0.000000 0.000000 -2.011743 24.057605 0.477352 -63.904773 14.480923 -11.060980 -2.462229 -43.211414 0.018433 14.570019 -1.668735 -0.208380 -0.153771 -0.047673 -0.000000 0.000000 0.000000 0.000000 0.000000 0.000000 0.000000 19.499899 0.057669 -0.584893 74.190330 12.020597 0.278587 2.686743 36.943237 0.006177 -2.025564 7.726679 -0.144955 0.082098 -0.209234 0.000000 0.000000 0.000000 0.000000 0.000000 0.000000 0.000000 
